# xmcd CD database file
#
# Track frame offsets:
#	150
#	37605
#	74122
#	82543
#	106543
#	166800
#	233452
#
# Disc length: 4147 seconds
#
# Revision: 0
# Processed by: cddbd v1.5.2PL0 Copyright (c) Steve Scherf et al.
# Submitted via: CDex 1.51
#
DISCID=3b103107
DTITLE=Eugene Chadbourne - Boogie With The Hook
DYEAR=1996
DGENRE=Jazz
TTITLE0=Whiskey and Women · Duet for Giant Bass (w/ Han Bennink)
TTITLE1=In Search af Carl La Fong (w/ Derek Bailey)
TTITLE2=Raking a Chance on Love (w/ Derek Bailey)
TTITLE3=Wax-lined circle Slide-test antiserum Glass slide Normal serum plus antigen Wax-lined circle (w/ Han Bennink)
TTITLE4=In Between Comm C and Come Saw (w/ Charles Tyler)
TTITLE5=The Banjo Duet: Raw-milk sample 1ml Plate 1.0 ml =1:100 dilution 1ml Plate 1.0 ml 1:10,000 dilution (w/ Volcmar Verkerk)
TTITLE6=Red Lightning Pt 1 (w/ John Zorn)
EXTD=YEAR: 1996
EXTT0=
EXTT1=
EXTT2=
EXTT3=
EXTT4=
EXTT5=
EXTT6=
PLAYORDER=
